<svg width="24" height="23" viewBox="0 0 24 23" fill="none" xmlns="http://www.w3.org/2000/svg">
<path d="M11.999 11.011V13.7466" stroke="white" stroke-opacity="0.4" stroke-width="1.5" stroke-miterlimit="10" stroke-linecap="round"/>
<path d="M14.2743 15.3351L11.9995 13.7432L9.72461 15.3351" stroke="white" stroke-opacity="0.4" stroke-width="1.5" stroke-miterlimit="10" stroke-linecap="round"/>
<path d="M7.97852 10.4721V8.86588C7.97852 7.46042 9.01687 6.94409 10.3561 6.94409L11.9999 8.71523L13.5262 6.94409C14.8654 6.94409 16.0212 7.46401 16.0212 8.86588V10.4721" stroke="white" stroke-opacity="0.4" stroke-width="1.5" stroke-miterlimit="10" stroke-linejoin="round"/>
<path d="M13.8601 3.53123C13.8601 4.54589 13.0236 5.37774 11.9999 5.37774C10.9762 5.37774 10.1396 4.54589 10.1396 3.53123V2.84646C10.1396 1.83181 10.9762 1 11.9999 1C13.0236 1 13.8601 1.83181 13.8601 2.84646V3.53123Z" stroke="white" stroke-opacity="0.4" stroke-width="1.5" stroke-miterlimit="10"/>
<path d="M14.957 22.9992V21.393C14.957 19.9875 15.9954 19.4712 17.3346 19.4712L18.9784 21.2424L20.5047 19.4712C21.844 19.4712 22.9997 19.9911 22.9997 21.393V22.9992" stroke="white" stroke-opacity="0.4" stroke-width="1.5" stroke-miterlimit="10" stroke-linejoin="round"/>
<path d="M20.8386 16.0584C20.8386 17.073 20.0021 17.9048 18.9784 17.9048C17.9547 17.9048 17.1182 17.073 17.1182 16.0584V15.3735C17.1182 14.3589 17.9547 13.5271 18.9784 13.5271C20.0021 13.5271 20.8386 14.3589 20.8386 15.3735V16.0584Z" stroke="white" stroke-opacity="0.4" stroke-width="1.5" stroke-miterlimit="10"/>
<path d="M1 22.9992V21.393C1 19.9875 2.03836 19.4712 3.37759 19.4712L5.02136 21.2424L6.5477 19.4712C7.88693 19.4712 9.04271 19.9911 9.04271 21.393V22.9992" stroke="white" stroke-opacity="0.4" stroke-width="1.5" stroke-miterlimit="10" stroke-linejoin="round"/>
<path d="M6.88161 16.0584C6.88161 17.073 6.04506 17.9048 5.02138 17.9048C3.99769 17.9048 3.16113 17.073 3.16113 16.0584V15.3735C3.16113 14.3589 3.99769 13.5271 5.02138 13.5271C6.04506 13.5271 6.88161 14.3589 6.88161 15.3735V16.0584Z" stroke="white" stroke-opacity="0.4" stroke-width="1.5" stroke-miterlimit="10"/>
</svg>
