<svg width="26" height="28" viewBox="0 0 26 28" fill="none" xmlns="http://www.w3.org/2000/svg">
<path d="M12.9974 1C7.765 1 7.47702 4.18917 7.84032 8.06617C8.20805 11.9521 10.6271 15.1278 12.9974 15.1278C15.3677 15.1278 17.7867 11.9476 18.1544 8.06617C18.5177 4.18917 18.2298 1 12.9974 1Z" stroke="#F8F8F8" stroke-opacity="0.4" stroke-width="1.5" stroke-miterlimit="10" stroke-linejoin="round"/>
<path d="M14.5482 4.13086C14.5482 4.13086 13.9944 6.78404 9.98926 6.78404" stroke="#F8F8F8" stroke-opacity="0.4" stroke-width="1.5" stroke-miterlimit="10" stroke-linecap="round" stroke-linejoin="round"/>
<path d="M14.0918 5.20288C14.0918 5.20288 15.8905 6.44463 18.1013 7.02528" stroke="#F8F8F8" stroke-opacity="0.4" stroke-width="1.5" stroke-miterlimit="10" stroke-linecap="round" stroke-linejoin="round"/>
<path d="M12.1738 21.1836L11.4473 26.9991" stroke="#F8F8F8" stroke-opacity="0.4" stroke-width="1.5" stroke-miterlimit="10" stroke-linecap="round" stroke-linejoin="round"/>
<path d="M13.8213 21.1833L14.5479 26.9988" stroke="#F8F8F8" stroke-opacity="0.4" stroke-width="1.5" stroke-miterlimit="10" stroke-linecap="round" stroke-linejoin="round"/>
<path d="M1 26.9996L1.44748 21.001C1.89053 17.6912 3.8621 17.3205 3.8621 17.3205C3.8621 17.3205 6.01086 16.7086 8.29698 16.3245L10.2951 20.4025" stroke="#F8F8F8" stroke-opacity="0.4" stroke-width="1.5" stroke-miterlimit="10" stroke-linecap="round" stroke-linejoin="round"/>
<path d="M25.0002 26.9991L24.5527 21.0005C24.1097 17.6907 22.1381 17.32 22.1381 17.32C22.1381 17.32 19.9894 16.7081 17.7032 16.324L15.7051 20.402" stroke="#F8F8F8" stroke-opacity="0.4" stroke-width="1.5" stroke-miterlimit="10" stroke-linecap="round" stroke-linejoin="round"/>
<path d="M13.0072 22.0058L10.916 19.6251L12.9939 17.2444H13.0072L15.0851 19.6251L13.0072 22.0058Z" stroke="#F8F8F8" stroke-opacity="0.4" stroke-width="1.5" stroke-miterlimit="10" stroke-linecap="round" stroke-linejoin="round"/>
</svg>
