<svg width="25" height="30" viewBox="0 0 25 30" fill="none" xmlns="http://www.w3.org/2000/svg">
<path d="M7.68268 17.1038L5.25176 17.9142C5.25176 17.9142 1 18.9771 1 22.4754V28.9992" stroke="#F8F8F8" stroke-opacity="0.4" stroke-width="1.5" stroke-miterlimit="10"/>
<path d="M10.5834 19.5543L5.98438 22.1767L7.6785 17.1096" stroke="#F8F8F8" stroke-opacity="0.4" stroke-width="1.5" stroke-miterlimit="10" stroke-linecap="round" stroke-linejoin="round"/>
<path d="M8.875 20.6448L12.4932 27.8289" stroke="#F8F8F8" stroke-opacity="0.4" stroke-width="1.5" stroke-miterlimit="10" stroke-linecap="round" stroke-linejoin="round"/>
<path d="M17.3174 17.1057L19.7483 17.9161C19.7483 17.9161 24.0001 18.9791 24.0001 22.4774V29.0011" stroke="#F8F8F8" stroke-opacity="0.4" stroke-width="1.5" stroke-miterlimit="10"/>
<path d="M14.417 19.5553L19.016 22.1777L17.3219 17.1106" stroke="#F8F8F8" stroke-opacity="0.4" stroke-width="1.5" stroke-miterlimit="10" stroke-linecap="round" stroke-linejoin="round"/>
<path d="M16.1251 20.6462L12.5068 27.8304" stroke="#F8F8F8" stroke-opacity="0.4" stroke-width="1.5" stroke-miterlimit="10" stroke-linecap="round" stroke-linejoin="round"/>
<path d="M13.9906 4.70312C13.9906 4.70312 13.3054 8.96017 7.3877 8.50591" stroke="#F8F8F8" stroke-opacity="0.4" stroke-width="1.5" stroke-miterlimit="10" stroke-linecap="round" stroke-linejoin="round"/>
<path d="M13.6104 5.87402C13.6104 5.87402 15.0511 8.39374 17.5571 8.51082" stroke="#F8F8F8" stroke-opacity="0.4" stroke-width="1.5" stroke-miterlimit="10" stroke-linecap="round"/>
<path d="M19.8521 14.73C19.8521 11.4471 19.8521 11.5875 19.8521 8.69334C19.8521 0.586787 12.4983 1.00362 12.4983 1.00362C12.4983 1.00362 5.14453 0.750698 5.14453 8.69334C5.14453 11.5922 5.14453 11.4518 5.14453 14.73" stroke="#F8F8F8" stroke-opacity="0.4" stroke-width="1.5" stroke-miterlimit="10" stroke-linecap="round" stroke-linejoin="round"/>
<path d="M8.12891 8.98374C8.12891 12.6319 10.2079 15.9477 12.5543 15.9477C14.9242 15.9477 16.7263 12.6225 16.7263 9.18978C16.7263 9.18978 16.7357 9.10553 16.7263 8.53418" stroke="#F8F8F8" stroke-opacity="0.4" stroke-width="1.5" stroke-miterlimit="10" stroke-linecap="round" stroke-linejoin="round"/>
</svg>
