<svg width="26" height="30" viewBox="0 0 26 30" fill="none" xmlns="http://www.w3.org/2000/svg">
<path d="M21.9159 9.30136V3.57577L13.0029 1L4.08984 3.59374L13.0029 6.55074L21.6012 3.7103" stroke="#F8F8F8" stroke-opacity="0.4" stroke-width="1.5" stroke-miterlimit="10" stroke-linecap="round" stroke-linejoin="round"/>
<path d="M7.42676 6.72613V7.79841C8.72094 8.95163 10.7597 9.68774 13.0068 9.68774C15.2495 9.68774 17.2927 8.94714 18.5824 7.79841V4.74719" stroke="#F8F8F8" stroke-opacity="0.4" stroke-width="1.5" stroke-miterlimit="10" stroke-linejoin="round"/>
<path d="M8.16602 10.527C8.50729 14.1482 10.5018 17.1097 12.9527 17.1097C15.417 17.1097 17.3982 14.1437 17.7394 10.527C17.8103 9.7821 17.8547 9.06874 17.8369 8.40015" stroke="#F8F8F8" stroke-opacity="0.4" stroke-width="1.5" stroke-miterlimit="10" stroke-linejoin="round"/>
<path d="M25 29.0003L24.5524 22.9382C24.1091 19.5907 22.1235 19.2182 22.1235 19.2182C22.1235 19.2182 19.9607 18.599 17.6604 18.2086L13.0022 24.4997L8.34404 18.2086C6.0482 18.599 3.88089 19.2182 3.88089 19.2182C3.88089 19.2182 1.89529 19.5907 1.44765 22.9382L1 29.0003" stroke="#F8F8F8" stroke-opacity="0.4" stroke-width="1.5" stroke-miterlimit="10" stroke-linecap="round" stroke-linejoin="round"/>
<path d="M17.7227 23.2561H20.936" stroke="#F8F8F8" stroke-opacity="0.4" stroke-width="1.5" stroke-miterlimit="10" stroke-linecap="round" stroke-linejoin="round"/>
</svg>
