<svg width="26" height="26" viewBox="0 0 26 26" fill="none" xmlns="http://www.w3.org/2000/svg">
<path d="M7.90918 5.06835L17.4562 1L19.2783 5.14424" stroke="#F8F8F8" stroke-opacity="0.4" stroke-width="1.5" stroke-miterlimit="10"/>
<path d="M23.1427 19.8512V22.7674C23.1427 23.9955 22.1501 25.0003 20.9368 25.0003H3.20589C1.99265 25.0003 1 23.9955 1 22.7674V9.44583C1 8.21771 1.99265 7.21289 3.20589 7.21289H20.9368C22.1501 7.21289 23.1427 8.21771 23.1427 9.44583V12.2771" stroke="#F8F8F8" stroke-opacity="0.4" stroke-width="1.5" stroke-miterlimit="10" stroke-linejoin="round"/>
<path d="M16.6921 16.1082C16.6921 16.3003 16.5377 16.4565 16.348 16.4565C16.1583 16.4565 16.0039 16.3003 16.0039 16.1082C16.0039 15.9162 16.1583 15.7598 16.348 15.7598C16.5422 15.7598 16.6921 15.9162 16.6921 16.1082Z" fill="#F8F8F8" fill-opacity="0.4" stroke="#F8F8F8" stroke-opacity="0.4" stroke-width="1.5" stroke-miterlimit="10"/>
<path d="M15.2674 19.7569C14.0542 19.7569 13.0615 18.7521 13.0615 17.524V14.697C13.0615 13.4689 14.0542 12.4641 15.2674 12.4641H24.9998V19.7569H15.2674Z" stroke="#F8F8F8" stroke-opacity="0.4" stroke-width="1.5" stroke-miterlimit="10" stroke-linecap="round" stroke-linejoin="round"/>
</svg>
