<svg width="32" height="24" viewBox="0 0 32 24" fill="none" xmlns="http://www.w3.org/2000/svg">
<path d="M13.6127 10.8911H6.20703V18.5876H13.6127V10.8911Z" stroke="#F8F8F8" stroke-width="1.5" stroke-miterlimit="10"/>
<path d="M17.8379 11.0488H25.7978" stroke="#F8F8F8" stroke-width="1.5" stroke-miterlimit="10" stroke-linecap="round"/>
<path d="M17.8379 14.7363H25.7978" stroke="#F8F8F8" stroke-width="1.5" stroke-miterlimit="10" stroke-linecap="round"/>
<path d="M17.8379 18.4243H25.7978" stroke="#F8F8F8" stroke-width="1.5" stroke-miterlimit="10" stroke-linecap="round"/>
<path d="M3.10059 6.51929H28.8994" stroke="#F8F8F8" stroke-width="1.5" stroke-miterlimit="10" stroke-linejoin="round"/>
<path d="M5.23831 3.79891C5.23831 3.99887 5.0753 4.16176 4.87502 4.16176C4.67474 4.16176 4.51172 3.99887 4.51172 3.79891C4.51172 3.59895 4.67474 3.43652 4.87502 3.43652C5.0753 3.43652 5.23831 3.59895 5.23831 3.79891Z" fill="#F8F8F8" stroke="#F8F8F8" stroke-width="1.5" stroke-miterlimit="10"/>
<path d="M8.34475 4.16176C8.54539 4.16176 8.70804 3.99924 8.70804 3.79891C8.70804 3.59859 8.54539 3.43652 8.34475 3.43652C8.1441 3.43652 7.98145 3.59859 7.98145 3.79891C7.98145 3.99924 8.1441 4.16176 8.34475 4.16176Z" fill="#F8F8F8" stroke="#F8F8F8" stroke-width="1.5" stroke-miterlimit="10"/>
<path d="M11.8155 4.16176C12.0161 4.16176 12.1787 3.99924 12.1787 3.79891C12.1787 3.59859 12.0161 3.43652 11.8155 3.43652C11.6148 3.43652 11.4521 3.59859 11.4521 3.79891C11.4521 3.99924 11.6148 4.16176 11.8155 4.16176Z" fill="#F8F8F8" stroke="#F8F8F8" stroke-width="1.5" stroke-miterlimit="10"/>
<path d="M31 21.3402C31 22.2516 30.2501 23 29.3372 23H2.66279C1.74523 23 1 22.2516 1 21.3402V2.66027C1 1.74418 1.74988 1 2.66279 1H29.3372C30.2548 1 31 1.74883 31 2.66027V21.3402Z" stroke="#F8F8F8" stroke-width="1.5" stroke-miterlimit="10"/>
</svg>
