<svg width="55" height="56" viewBox="0 0 55 56" fill="none" xmlns="http://www.w3.org/2000/svg">
<path d="M45.0103 7.41992H50.5403C52.1903 7.41992 53.5403 8.76992 53.5403 10.4199V51.7002C53.5403 53.3502 52.1903 54.7002 50.5403 54.7002H4.57031C2.92031 54.7002 1.57031 53.3502 1.57031 51.7002V10.4199C1.57031 8.76992 2.92031 7.41992 4.57031 7.41992H12.8203" stroke="#79D9EE" stroke-width="2.5" stroke-miterlimit="10" stroke-linejoin="round"/>
<path d="M31.8789 7.41992H39.0589" stroke="#79D9EE" stroke-width="2.5" stroke-miterlimit="10" stroke-linejoin="round"/>
<path d="M18.75 7.41992H25.94" stroke="#79D9EE" stroke-width="2.5" stroke-miterlimit="10" stroke-linejoin="round"/>
<path d="M1.66016 21.6699H53.4402" stroke="#79D9EE" stroke-width="2.5" stroke-miterlimit="10" stroke-linejoin="round"/>
<path d="M13.0195 2.04004V13.6797" stroke="#79D9EE" stroke-width="2.5" stroke-miterlimit="10" stroke-linecap="round"/>
<path d="M39.2695 2.04004V13.6797" stroke="#79D9EE" stroke-width="2.5" stroke-miterlimit="10" stroke-linecap="round"/>
<path d="M26.1484 2.04004V13.6797" stroke="#79D9EE" stroke-width="2.5" stroke-miterlimit="10" stroke-linecap="round"/>
<path d="M19.9889 37.5596H19.1289V38.4199H19.9889V37.5596Z" fill="#79D9EE" stroke="#79D9EE" stroke-width="2.5" stroke-miterlimit="10"/>
<path d="M12.0084 37.5596H11.1484V38.4199H12.0084V37.5596Z" fill="#79D9EE" stroke="#79D9EE" stroke-width="2.5" stroke-miterlimit="10"/>
<path d="M27.9772 37.5596H27.1172V38.4199H27.9772V37.5596Z" fill="#79D9EE" stroke="#79D9EE" stroke-width="2.5" stroke-miterlimit="10"/>
<path d="M35.9694 37.5596H35.1094V38.4199H35.9694V37.5596Z" fill="#79D9EE" stroke="#79D9EE" stroke-width="2.5" stroke-miterlimit="10"/>
<path d="M43.9499 37.5596H43.0898V38.4199H43.9499V37.5596Z" fill="#79D9EE" stroke="#79D9EE" stroke-width="2.5" stroke-miterlimit="10"/>
<path d="M19.9889 29.5801H19.1289V30.4404H19.9889V29.5801Z" fill="#79D9EE" stroke="#79D9EE" stroke-width="2.5" stroke-miterlimit="10"/>
<path d="M27.9772 29.5801H27.1172V30.4404H27.9772V29.5801Z" fill="#79D9EE" stroke="#79D9EE" stroke-width="2.5" stroke-miterlimit="10"/>
<path d="M35.9694 29.5801H35.1094V30.4404H35.9694V29.5801Z" fill="#79D9EE" stroke="#79D9EE" stroke-width="2.5" stroke-miterlimit="10"/>
<path d="M43.9499 29.5801H43.0898V30.4404H43.9499V29.5801Z" fill="#79D9EE" stroke="#79D9EE" stroke-width="2.5" stroke-miterlimit="10"/>
<path d="M19.9889 45.5498H19.1289V46.4102H19.9889V45.5498Z" fill="#79D9EE" stroke="#79D9EE" stroke-width="2.5" stroke-miterlimit="10"/>
<path d="M12.0084 45.5498H11.1484V46.4102H12.0084V45.5498Z" fill="#79D9EE" stroke="#79D9EE" stroke-width="2.5" stroke-miterlimit="10"/>
<path d="M27.9772 45.5498H27.1172V46.4102H27.9772V45.5498Z" fill="#79D9EE" stroke="#79D9EE" stroke-width="2.5" stroke-miterlimit="10"/>
<path d="M35.9694 45.5498H35.1094V46.4102H35.9694V45.5498Z" fill="#79D9EE" stroke="#79D9EE" stroke-width="2.5" stroke-miterlimit="10"/>
</svg>
