<svg width="270" height="280" viewBox="0 0 270 280" fill="none" xmlns="http://www.w3.org/2000/svg">
<rect width="270" height="280" rx="5" fill="#C4C4C4"/>
<path d="M108.964 49.1047C97.3363 57.7383 94.212 71.4083 94.7842 78.6829C95.5167 87.5792 97.3249 99.1592 97.3249 99.1592C97.3249 99.1592 93.7428 101.101 93.7428 108.912C94.9902 128.52 101.559 120.058 102.91 128.657C106.16 149.374 113.587 145.685 113.587 156.991C113.587 175.823 105.805 184.628 81.5087 195.066C57.132 205.549 32 218.74 32 241.58V253H238V241.58C238 218.74 212.857 205.549 188.468 195.077C164.172 184.639 156.413 175.846 156.413 157.002C156.413 145.696 163.817 149.385 167.079 128.669C168.441 120.07 174.998 128.532 176.269 108.923C176.269 101.112 172.675 99.1706 172.675 99.1706C172.675 99.1706 174.483 87.5906 175.204 78.6943C175.948 69.3641 170.649 49.4473 148.882 43.3375C145.071 39.4547 142.496 33.2764 154.215 27.0753C128.58 25.8761 122.617 39.2606 108.964 49.1047Z" fill="black" fill-opacity="0.1"/>
</svg>
