<svg width="26" height="29" viewBox="0 0 26 29" fill="none" xmlns="http://www.w3.org/2000/svg">
<path d="M16.8602 24.3496C16.5579 26.1356 14.9471 27.5002 13.0027 27.5002C11.0635 27.5002 9.45274 26.1356 9.15039 24.3496" stroke="#F8F8F8" stroke-width="1.5" stroke-miterlimit="10" stroke-linejoin="round"/>
<path d="M19.8758 7.78462C19.8758 7.78462 20.0843 2.82817 15.7055 1.44857C15.1581 1.278 14.1885 1.08221 12.9844 1.05713C11.7958 1.08221 10.8419 1.278 10.2945 1.44857C5.91574 2.82817 6.12425 7.78462 6.12425 7.78462C6.12425 14.9686 1 17.5221 1 17.5221C1 20.0456 1 21.9921 1 21.9921H25C25 21.9921 25 20.0456 25 17.5221C25.0052 17.5221 19.8758 14.9686 19.8758 7.78462Z" stroke="#F8F8F8" stroke-width="1.5" stroke-miterlimit="10" stroke-linejoin="round"/>
</svg>
