<svg width="24" height="25" viewBox="0 0 24 25" fill="none" xmlns="http://www.w3.org/2000/svg">
<path d="M12 0C10.6815 0 9.39253 0.385848 8.2962 1.10875C7.19987 1.83166 6.34539 2.85915 5.8408 4.06129C5.33622 5.26344 5.2042 6.58625 5.46143 7.86244C5.71867 9.13863 6.3536 10.3109 7.28595 11.231C8.2183 12.151 9.40619 12.7776 10.6994 13.0315C11.9926 13.2853 13.333 13.155 14.5512 12.6571C15.7694 12.1592 16.8106 11.3159 17.5431 10.234C18.2757 9.15211 18.6667 7.88014 18.6667 6.57895C18.6667 4.8341 17.9643 3.16072 16.714 1.92693C15.4638 0.693137 13.7681 0 12 0ZM12 10.5263C11.2089 10.5263 10.4355 10.2948 9.77772 9.86106C9.11992 9.42732 8.60723 8.81083 8.30448 8.08954C8.00173 7.36825 7.92252 6.57457 8.07686 5.80885C8.2312 5.04314 8.61216 4.33979 9.17157 3.78774C9.73098 3.23569 10.4437 2.85974 11.2196 2.70743C11.9956 2.55512 12.7998 2.63329 13.5307 2.93205C14.2616 3.23082 14.8864 3.73677 15.3259 4.38591C15.7654 5.03505 16 5.79823 16 6.57895C16 7.62585 15.5786 8.62988 14.8284 9.37016C14.0783 10.1104 13.0609 10.5263 12 10.5263ZM24 25V23.6842C24 21.2414 23.0167 18.8987 21.2663 17.1714C19.516 15.4441 17.142 14.4737 14.6667 14.4737H9.33333C6.85798 14.4737 4.48401 15.4441 2.73367 17.1714C0.98333 18.8987 0 21.2414 0 23.6842V25H2.66667V23.6842C2.66667 21.9394 3.36905 20.266 4.61929 19.0322C5.86953 17.7984 7.56522 17.1053 9.33333 17.1053H14.6667C16.4348 17.1053 18.1305 17.7984 19.3807 19.0322C20.631 20.266 21.3333 21.9394 21.3333 23.6842V25H24Z" fill="#79D9EE"/>
</svg>
