<svg width="18" height="18" viewBox="0 0 18 18" fill="none" xmlns="http://www.w3.org/2000/svg">
<path d="M9.99636 8.00334L10.003 1.93473C10.003 1.66866 9.89726 1.41349 9.70912 1.22534C9.52097 1.03719 9.26579 0.931481 8.99973 0.931462C8.73367 0.931443 8.47851 1.03712 8.29039 1.22524C8.10226 1.41336 7.99659 1.66852 7.99661 1.93458L8.0041 8.0032L1.93549 7.9957C1.66943 7.99568 1.41427 8.10136 1.22615 8.28948C1.03802 8.4776 0.932348 8.73276 0.932367 8.99882C0.932386 9.26489 1.0381 9.52006 1.22625 9.70821C1.41439 9.89636 1.66957 10.0021 1.93563 10.0021L8.00425 9.99546L7.99761 16.0641C7.99708 16.196 8.02267 16.3267 8.0729 16.4486C8.12313 16.5706 8.19702 16.6814 8.29029 16.7747C8.38355 16.8679 8.49437 16.9418 8.61633 16.992C8.73829 17.0423 8.86898 17.0679 9.00088 17.0673C9.13277 17.0679 9.26346 17.0423 9.38542 16.9921C9.50737 16.9419 9.61817 16.868 9.71143 16.7748C9.80468 16.6815 9.87855 16.5707 9.92876 16.4488C9.97898 16.3268 10.0045 16.1961 10.004 16.0642L9.9965 9.9956L16.0651 10.0031C16.197 10.0036 16.3277 9.97807 16.4497 9.92786C16.5716 9.87764 16.6824 9.80378 16.7757 9.71052C16.8689 9.61726 16.9428 9.50646 16.993 9.38451C17.0432 9.26256 17.0688 9.13186 17.0682 8.99997C17.0688 8.86808 17.0432 8.73738 16.993 8.61542C16.9427 8.49346 16.8688 8.38265 16.7756 8.28938C16.6823 8.19611 16.5715 8.12223 16.4495 8.07199C16.3276 8.02176 16.1969 7.99618 16.065 7.99671L9.99636 8.00334Z" fill="#133742"/>
</svg>
