<svg width="121" height="27" viewBox="0 0 121 27" fill="none" xmlns="http://www.w3.org/2000/svg">
<path d="M10.352 3.6C12.336 3.6 14.0533 3.93067 15.504 4.592C16.976 5.25333 18.1067 6.192 18.896 7.408C19.6853 8.624 20.08 10.064 20.08 11.728C20.08 13.3707 19.6853 14.8107 18.896 16.048C18.1067 17.264 16.976 18.2027 15.504 18.864C14.0533 19.504 12.336 19.824 10.352 19.824H5.84V26H0.656V3.6H10.352ZM10.064 15.6C11.6213 15.6 12.8053 15.2693 13.616 14.608C14.4267 13.9253 14.832 12.9653 14.832 11.728C14.832 10.4693 14.4267 9.50933 13.616 8.848C12.8053 8.16533 11.6213 7.824 10.064 7.824H5.84V15.6H10.064Z" fill="#79D9EE"/>
<path d="M31.9335 26.256C30.1202 26.256 28.4882 25.8827 27.0375 25.136C25.6082 24.368 24.4882 23.312 23.6775 21.968C22.8668 20.624 22.4615 19.0987 22.4615 17.392C22.4615 15.6853 22.8668 14.16 23.6775 12.816C24.4882 11.472 25.6082 10.4267 27.0375 9.68C28.4882 8.912 30.1202 8.528 31.9335 8.528C33.7468 8.528 35.3682 8.912 36.7975 9.68C38.2268 10.4267 39.3468 11.472 40.1575 12.816C40.9682 14.16 41.3735 15.6853 41.3735 17.392C41.3735 19.0987 40.9682 20.624 40.1575 21.968C39.3468 23.312 38.2268 24.368 36.7975 25.136C35.3682 25.8827 33.7468 26.256 31.9335 26.256ZM31.9335 22.16C33.2135 22.16 34.2588 21.7333 35.0695 20.88C35.9015 20.0053 36.3175 18.8427 36.3175 17.392C36.3175 15.9413 35.9015 14.7893 35.0695 13.936C34.2588 13.0613 33.2135 12.624 31.9335 12.624C30.6535 12.624 29.5975 13.0613 28.7655 13.936C27.9335 14.7893 27.5175 15.9413 27.5175 17.392C27.5175 18.8427 27.9335 20.0053 28.7655 20.88C29.5975 21.7333 30.6535 22.16 31.9335 22.16ZM44.7103 8.784H49.7023V26H44.7103V8.784ZM47.2063 6.384C46.2889 6.384 45.5423 6.11733 44.9663 5.584C44.3903 5.05067 44.1023 4.38933 44.1023 3.6C44.1023 2.81067 44.3903 2.14933 44.9663 1.616C45.5423 1.08267 46.2889 0.815998 47.2063 0.815998C48.1236 0.815998 48.8703 1.072 49.4463 1.584C50.0223 2.096 50.3103 2.736 50.3103 3.504C50.3103 4.336 50.0223 5.02933 49.4463 5.584C48.8703 6.11733 48.1236 6.384 47.2063 6.384ZM64.7993 8.528C66.9326 8.528 68.6499 9.168 69.9513 10.448C71.2739 11.728 71.9353 13.6267 71.9353 16.144V26H66.9433V16.912C66.9433 15.5467 66.6446 14.5333 66.0473 13.872C65.4499 13.1893 64.5859 12.848 63.4553 12.848C62.1966 12.848 61.1939 13.2427 60.4473 14.032C59.7006 14.8 59.3273 15.952 59.3273 17.488V26H54.3353V8.784H59.1033V10.8C59.7646 10.0747 60.5859 9.52 61.5673 9.136C62.5486 8.73067 63.6259 8.528 64.7993 8.528ZM87.5643 25.168C87.0736 25.5307 86.4656 25.808 85.7403 26C85.0363 26.1707 84.2896 26.256 83.5003 26.256C81.4523 26.256 79.8629 25.7333 78.7323 24.688C77.6229 23.6427 77.0683 22.1067 77.0683 20.08V13.008H74.4123V9.168H77.0683V4.976H82.0603V9.168H86.3483V13.008H82.0603V20.016C82.0603 20.7413 82.2416 21.3067 82.6042 21.712C82.9883 22.096 83.5216 22.288 84.2043 22.288C84.9936 22.288 85.6656 22.0747 86.2203 21.648L87.5643 25.168ZM106.699 17.456C106.699 17.52 106.667 17.968 106.603 18.8H93.5793C93.8139 19.8667 94.3686 20.7093 95.2433 21.328C96.1179 21.9467 97.2059 22.256 98.5073 22.256C99.4033 22.256 100.193 22.128 100.875 21.872C101.579 21.5947 102.23 21.168 102.827 20.592L105.483 23.472C103.862 25.328 101.494 26.256 98.3793 26.256C96.4379 26.256 94.7206 25.8827 93.2273 25.136C91.7339 24.368 90.5819 23.312 89.7713 21.968C88.9606 20.624 88.5553 19.0987 88.5553 17.392C88.5553 15.7067 88.9499 14.192 89.7393 12.848C90.5499 11.4827 91.6486 10.4267 93.0353 9.68C94.4433 8.912 96.0113 8.528 97.7393 8.528C99.4246 8.528 100.95 8.89067 102.315 9.616C103.681 10.3413 104.747 11.3867 105.515 12.752C106.305 14.096 106.699 15.664 106.699 17.456ZM97.7713 12.304C96.6406 12.304 95.6913 12.624 94.9233 13.264C94.1553 13.904 93.6859 14.7787 93.5153 15.888H101.995C101.825 14.8 101.355 13.936 100.587 13.296C99.8193 12.6347 98.8806 12.304 97.7713 12.304ZM114.791 11.056C115.388 10.224 116.188 9.59467 117.191 9.168C118.215 8.74133 119.388 8.528 120.711 8.528V13.136C120.156 13.0933 119.783 13.072 119.591 13.072C118.161 13.072 117.041 13.4773 116.231 14.288C115.42 15.0773 115.015 16.272 115.015 17.872V26H110.023V8.784H114.791V11.056Z" fill="#F8F8F8"/>
</svg>
