<svg width="182" height="39" viewBox="0 0 182 39" fill="none" xmlns="http://www.w3.org/2000/svg">
<path d="M15.528 4.4C18.504 4.4 21.08 4.896 23.256 5.888C25.464 6.88 27.16 8.288 28.344 10.112C29.528 11.936 30.12 14.096 30.12 16.592C30.12 19.056 29.528 21.216 28.344 23.072C27.16 24.896 25.464 26.304 23.256 27.296C21.08 28.256 18.504 28.736 15.528 28.736H8.76V38H0.984V4.4H15.528ZM15.096 22.4C17.432 22.4 19.208 21.904 20.424 20.912C21.64 19.888 22.248 18.448 22.248 16.592C22.248 14.704 21.64 13.264 20.424 12.272C19.208 11.248 17.432 10.736 15.096 10.736H8.76V22.4H15.096Z" fill="#21BCA0"/>
<path d="M47.9003 38.384C45.1803 38.384 42.7323 37.824 40.5563 36.704C38.4123 35.552 36.7323 33.968 35.5163 31.952C34.3003 29.936 33.6923 27.648 33.6923 25.088C33.6923 22.528 34.3003 20.24 35.5163 18.224C36.7323 16.208 38.4123 14.64 40.5563 13.52C42.7323 12.368 45.1803 11.792 47.9003 11.792C50.6203 11.792 53.0523 12.368 55.1963 13.52C57.3403 14.64 59.0203 16.208 60.2363 18.224C61.4523 20.24 62.0603 22.528 62.0603 25.088C62.0603 27.648 61.4523 29.936 60.2363 31.952C59.0203 33.968 57.3403 35.552 55.1963 36.704C53.0523 37.824 50.6203 38.384 47.9003 38.384ZM47.9003 32.24C49.8203 32.24 51.3883 31.6 52.6043 30.32C53.8523 29.008 54.4763 27.264 54.4763 25.088C54.4763 22.912 53.8523 21.184 52.6043 19.904C51.3883 18.592 49.8203 17.936 47.9003 17.936C45.9803 17.936 44.3963 18.592 43.1483 19.904C41.9003 21.184 41.2763 22.912 41.2763 25.088C41.2763 27.264 41.9003 29.008 43.1483 30.32C44.3963 31.6 45.9803 32.24 47.9003 32.24ZM67.0654 12.176H74.5534V38H67.0654V12.176ZM70.8094 8.576C69.4334 8.576 68.3134 8.176 67.4494 7.376C66.5854 6.576 66.1534 5.584 66.1534 4.4C66.1534 3.216 66.5854 2.224 67.4494 1.424C68.3134 0.623998 69.4334 0.223997 70.8094 0.223997C72.1854 0.223997 73.3054 0.607998 74.1694 1.376C75.0334 2.144 75.4654 3.104 75.4654 4.256C75.4654 5.504 75.0334 6.544 74.1694 7.376C73.3054 8.176 72.1854 8.576 70.8094 8.576ZM97.1989 11.792C100.399 11.792 102.975 12.752 104.927 14.672C106.911 16.592 107.903 19.44 107.903 23.216V38H100.415V24.368C100.415 22.32 99.9669 20.8 99.0709 19.808C98.1749 18.784 96.8789 18.272 95.1829 18.272C93.2949 18.272 91.7909 18.864 90.6709 20.048C89.5509 21.2 88.9909 22.928 88.9909 25.232V38H81.5029V12.176H88.6549V15.2C89.6469 14.112 90.8789 13.28 92.3509 12.704C93.8229 12.096 95.4389 11.792 97.1989 11.792ZM131.346 36.752C130.61 37.296 129.698 37.712 128.61 38C127.554 38.256 126.434 38.384 125.25 38.384C122.178 38.384 119.794 37.6 118.098 36.032C116.434 34.464 115.602 32.16 115.602 29.12V18.512H111.618V12.752H115.602V6.464H123.09V12.752H129.522V18.512H123.09V29.024C123.09 30.112 123.362 30.96 123.906 31.568C124.482 32.144 125.282 32.432 126.306 32.432C127.49 32.432 128.498 32.112 129.33 31.472L131.346 36.752ZM160.049 25.184C160.049 25.28 160.001 25.952 159.905 27.2H140.369C140.721 28.8 141.553 30.064 142.865 30.992C144.177 31.92 145.809 32.384 147.761 32.384C149.105 32.384 150.289 32.192 151.313 31.808C152.369 31.392 153.345 30.752 154.241 29.888L158.225 34.208C155.793 36.992 152.241 38.384 147.569 38.384C144.657 38.384 142.081 37.824 139.841 36.704C137.601 35.552 135.873 33.968 134.657 31.952C133.441 29.936 132.833 27.648 132.833 25.088C132.833 22.56 133.425 20.288 134.609 18.272C135.825 16.224 137.473 14.64 139.553 13.52C141.665 12.368 144.017 11.792 146.609 11.792C149.137 11.792 151.425 12.336 153.473 13.424C155.521 14.512 157.121 16.08 158.273 18.128C159.457 20.144 160.049 22.496 160.049 25.184ZM146.657 17.456C144.961 17.456 143.537 17.936 142.385 18.896C141.233 19.856 140.529 21.168 140.273 22.832H152.993C152.737 21.2 152.033 19.904 150.881 18.944C149.729 17.952 148.321 17.456 146.657 17.456ZM172.186 15.584C173.082 14.336 174.282 13.392 175.786 12.752C177.322 12.112 179.082 11.792 181.066 11.792V18.704C180.234 18.64 179.674 18.608 179.386 18.608C177.242 18.608 175.562 19.216 174.346 20.432C173.13 21.616 172.522 23.408 172.522 25.808V38H165.034V12.176H172.186V15.584Z" fill="#F8F8F8"/>
</svg>
